solid cylinder
facet normal 0 0 0
 outer loop
 vertex 0.5 0.0 -0.5
 vertex 0.492403876506104 0.08682408883346517 -0.5
 vertex 0.492403876506104 0.08682408883346517 0.5
 endloop
endfacet
facet normal 0 0 0
 outer loop
 vertex 0.5 0.0 -0.5
 vertex 0.492403876506104 0.08682408883346517 0.5
 vertex 0.5 0.0 0.5
 endloop
endfacet
facet normal 0 0 0
 outer loop
 vertex 0.492403876506104 0.08682408883346517 -0.5
 vertex 0.4698463103929542 0.17101007166283436 -0.5
 vertex 0.4698463103929542 0.17101007166283436 0.5
 endloop
endfacet
facet normal 0 0 0
 outer loop
 vertex 0.492403876506104 0.08682408883346517 -0.5
 vertex 0.4698463103929542 0.17101007166283436 0.5
 vertex 0.492403876506104 0.08682408883346517 0.5
 endloop
endfacet
facet normal 0 0 0
 outer loop
 vertex 0.4698463103929542 0.17101007166283436 -0.5
 vertex 0.43301270189221935 0.24999999999999997 -0.5
 vertex 0.43301270189221935 0.24999999999999997 0.5
 endloop
endfacet
facet normal 0 0 0
 outer loop
 vertex 0.4698463103929542 0.17101007166283436 -0.5
 vertex 0.43301270189221935 0.24999999999999997 0.5
 vertex 0.4698463103929542 0.17101007166283436 0.5
 endloop
endfacet
facet normal 0 0 0
 outer loop
 vertex 0.43301270189221935 0.24999999999999997 -0.5
 vertex 0.383022221559489 0.3213938048432696 -0.5
 vertex 0.383022221559489 0.3213938048432696 0.5
 endloop
endfacet
facet normal 0 0 0
 outer loop
 vertex 0.43301270189221935 0.24999999999999997 -0.5
 vertex 0.383022221559489 0.3213938048432696 0.5
 vertex 0.43301270189221935 0.24999999999999997 0.5
 endloop
endfacet
facet normal 0 0 0
 outer loop
 vertex 0.383022221559489 0.3213938048432696 -0.5
 vertex 0.3213938048432697 0.383022221559489 -0.5
 vertex 0.3213938048432697 0.383022221559489 0.5
 endloop
endfacet
facet normal 0 0 0
 outer loop
 vertex 0.383022221559489 0.3213938048432696 -0.5
 vertex 0.3213938048432697 0.383022221559489 0.5
 vertex 0.383022221559489 0.3213938048432696 0.5
 endloop
endfacet
facet normal 0 0 0
 outer loop
 vertex 0.3213938048432697 0.383022221559489 -0.5
 vertex 0.25000000000000006 0.4330127018922193 -0.5
 vertex 0.25000000000000006 0.4330127018922193 0.5
 endloop
endfacet
facet normal 0 0 0
 outer loop
 vertex 0.3213938048432697 0.383022221559489 -0.5
 vertex 0.25000000000000006 0.4330127018922193 0.5
 vertex 0.3213938048432697 0.383022221559489 0.5
 endloop
endfacet
facet normal 0 0 0
 outer loop
 vertex 0.25000000000000006 0.4330127018922193 -0.5
 vertex 0.1710100716628344 0.46984631039295416 -0.5
 vertex 0.1710100716628344 0.46984631039295416 0.5
 endloop
endfacet
facet normal 0 0 0
 outer loop
 vertex 0.25000000000000006 0.4330127018922193 -0.5
 vertex 0.1710100716628344 0.46984631039295416 0.5
 vertex 0.25000000000000006 0.4330127018922193 0.5
 endloop
endfacet
facet normal 0 0 0
 outer loop
 vertex 0.1710100716628344 0.46984631039295416 -0.5
 vertex 0.08682408883346521 0.492403876506104 -0.5
 vertex 0.08682408883346521 0.492403876506104 0.5
 endloop
endfacet
facet normal 0 0 0
 outer loop
 vertex 0.1710100716628344 0.46984631039295416 -0.5
 vertex 0.08682408883346521 0.492403876506104 0.5
 vertex 0.1710100716628344 0.46984631039295416 0.5
 endloop
endfacet
facet normal 0 0 0
 outer loop
 vertex 0.08682408883346521 0.492403876506104 -0.5
 vertex 3.061616997868383e-17 0.5 -0.5
 vertex 3.061616997868383e-17 0.5 0.5
 endloop
endfacet
facet normal 0 0 0
 outer loop
 vertex 0.08682408883346521 0.492403876506104 -0.5
 vertex 3.061616997868383e-17 0.5 0.5
 vertex 0.08682408883346521 0.492403876506104 0.5
 endloop
endfacet
facet normal 0 0 0
 outer loop
 vertex 3.061616997868383e-17 0.5 -0.5
 vertex -0.08682408883346515 0.492403876506104 -0.5
 vertex -0.08682408883346515 0.492403876506104 0.5
 endloop
endfacet
facet normal 0 0 0
 outer loop
 vertex 3.061616997868383e-17 0.5 -0.5
 vertex -0.08682408883346515 0.492403876506104 0.5
 vertex 3.061616997868383e-17 0.5 0.5
 endloop
endfacet
facet normal 0 0 0
 outer loop
 vertex -0.08682408883346515 0.492403876506104 -0.5
 vertex -0.17101007166283425 0.4698463103929542 -0.5
 vertex -0.17101007166283425 0.4698463103929542 0.5
 endloop
endfacet
facet normal 0 0 0
 outer loop
 vertex -0.08682408883346515 0.492403876506104 -0.5
 vertex -0.17101007166283425 0.4698463103929542 0.5
 vertex -0.08682408883346515 0.492403876506104 0.5
 endloop
endfacet
facet normal 0 0 0
 outer loop
 vertex -0.17101007166283425 0.4698463103929542 -0.5
 vertex -0.2499999999999999 0.43301270189221935 -0.5
 vertex -0.2499999999999999 0.43301270189221935 0.5
 endloop
endfacet
facet normal 0 0 0
 outer loop
 vertex -0.17101007166283425 0.4698463103929542 -0.5
 vertex -0.2499999999999999 0.43301270189221935 0.5
 vertex -0.17101007166283425 0.4698463103929542 0.5
 endloop
endfacet
facet normal 0 0 0
 outer loop
 vertex -0.2499999999999999 0.43301270189221935 -0.5
 vertex -0.3213938048432697 0.383022221559489 -0.5
 vertex -0.3213938048432697 0.383022221559489 0.5
 endloop
endfacet
facet normal 0 0 0
 outer loop
 vertex -0.2499999999999999 0.43301270189221935 -0.5
 vertex -0.3213938048432697 0.383022221559489 0.5
 vertex -0.2499999999999999 0.43301270189221935 0.5
 endloop
endfacet
facet normal 0 0 0
 outer loop
 vertex -0.3213938048432697 0.383022221559489 -0.5
 vertex -0.38302222155948895 0.32139380484326974 -0.5
 vertex -0.38302222155948895 0.32139380484326974 0.5
 endloop
endfacet
facet normal 0 0 0
 outer loop
 vertex -0.3213938048432697 0.383022221559489 -0.5
 vertex -0.38302222155948895 0.32139380484326974 0.5
 vertex -0.3213938048432697 0.383022221559489 0.5
 endloop
endfacet
facet normal 0 0 0
 outer loop
 vertex -0.38302222155948895 0.32139380484326974 -0.5
 vertex -0.43301270189221924 0.25000000000000017 -0.5
 vertex -0.43301270189221924 0.25000000000000017 0.5
 endloop
endfacet
facet normal 0 0 0
 outer loop
 vertex -0.38302222155948895 0.32139380484326974 -0.5
 vertex -0.43301270189221924 0.25000000000000017 0.5
 vertex -0.38302222155948895 0.32139380484326974 0.5
 endloop
endfacet
facet normal 0 0 0
 outer loop
 vertex -0.43301270189221924 0.25000000000000017 -0.5
 vertex -0.46984631039295416 0.17101007166283444 -0.5
 vertex -0.46984631039295416 0.17101007166283444 0.5
 endloop
endfacet
facet normal 0 0 0
 outer loop
 vertex -0.43301270189221924 0.25000000000000017 -0.5
 vertex -0.46984631039295416 0.17101007166283444 0.5
 vertex -0.43301270189221924 0.25000000000000017 0.5
 endloop
endfacet
facet normal 0 0 0
 outer loop
 vertex -0.46984631039295416 0.17101007166283444 -0.5
 vertex -0.492403876506104 0.08682408883346514 -0.5
 vertex -0.492403876506104 0.08682408883346514 0.5
 endloop
endfacet
facet normal 0 0 0
 outer loop
 vertex -0.46984631039295416 0.17101007166283444 -0.5
 vertex -0.492403876506104 0.08682408883346514 0.5
 vertex -0.46984631039295416 0.17101007166283444 0.5
 endloop
endfacet
facet normal 0 0 0
 outer loop
 vertex -0.492403876506104 0.08682408883346514 -0.5
 vertex -0.5 6.123233995736766e-17 -0.5
 vertex -0.5 6.123233995736766e-17 0.5
 endloop
endfacet
facet normal 0 0 0
 outer loop
 vertex -0.492403876506104 0.08682408883346514 -0.5
 vertex -0.5 6.123233995736766e-17 0.5
 vertex -0.492403876506104 0.08682408883346514 0.5
 endloop
endfacet
facet normal 0 0 0
 outer loop
 vertex -0.5 6.123233995736766e-17 -0.5
 vertex -0.49240387650610407 -0.08682408883346501 -0.5
 vertex -0.49240387650610407 -0.08682408883346501 0.5
 endloop
endfacet
facet normal 0 0 0
 outer loop
 vertex -0.5 6.123233995736766e-17 -0.5
 vertex -0.49240387650610407 -0.08682408883346501 0.5
 vertex -0.5 6.123233995736766e-17 0.5
 endloop
endfacet
facet normal 0 0 0
 outer loop
 vertex -0.49240387650610407 -0.08682408883346501 -0.5
 vertex -0.4698463103929542 -0.17101007166283433 -0.5
 vertex -0.4698463103929542 -0.17101007166283433 0.5
 endloop
endfacet
facet normal 0 0 0
 outer loop
 vertex -0.49240387650610407 -0.08682408883346501 -0.5
 vertex -0.4698463103929542 -0.17101007166283433 0.5
 vertex -0.49240387650610407 -0.08682408883346501 0.5
 endloop
endfacet
facet normal 0 0 0
 outer loop
 vertex -0.4698463103929542 -0.17101007166283433 -0.5
 vertex -0.4330127018922193 -0.25000000000000006 -0.5
 vertex -0.4330127018922193 -0.25000000000000006 0.5
 endloop
endfacet
facet normal 0 0 0
 outer loop
 vertex -0.4698463103929542 -0.17101007166283433 -0.5
 vertex -0.4330127018922193 -0.25000000000000006 0.5
 vertex -0.4698463103929542 -0.17101007166283433 0.5
 endloop
endfacet
facet normal 0 0 0
 outer loop
 vertex -0.4330127018922193 -0.25000000000000006 -0.5
 vertex -0.3830222215594892 -0.32139380484326946 -0.5
 vertex -0.3830222215594892 -0.32139380484326946 0.5
 endloop
endfacet
facet normal 0 0 0
 outer loop
 vertex -0.4330127018922193 -0.25000000000000006 -0.5
 vertex -0.3830222215594892 -0.32139380484326946 0.5
 vertex -0.4330127018922193 -0.25000000000000006 0.5
 endloop
endfacet
facet normal 0 0 0
 outer loop
 vertex -0.3830222215594892 -0.32139380484326946 -0.5
 vertex -0.32139380484326974 -0.38302222155948895 -0.5
 vertex -0.32139380484326974 -0.38302222155948895 0.5
 endloop
endfacet
facet normal 0 0 0
 outer loop
 vertex -0.3830222215594892 -0.32139380484326946 -0.5
 vertex -0.32139380484326974 -0.38302222155948895 0.5
 vertex -0.3830222215594892 -0.32139380484326946 0.5
 endloop
endfacet
facet normal 0 0 0
 outer loop
 vertex -0.32139380484326974 -0.38302222155948895 -0.5
 vertex -0.2500000000000002 -0.4330127018922192 -0.5
 vertex -0.2500000000000002 -0.4330127018922192 0.5
 endloop
endfacet
facet normal 0 0 0
 outer loop
 vertex -0.32139380484326974 -0.38302222155948895 -0.5
 vertex -0.2500000000000002 -0.4330127018922192 0.5
 vertex -0.32139380484326974 -0.38302222155948895 0.5
 endloop
endfacet
facet normal 0 0 0
 outer loop
 vertex -0.2500000000000002 -0.4330127018922192 -0.5
 vertex -0.17101007166283427 -0.4698463103929542 -0.5
 vertex -0.17101007166283427 -0.4698463103929542 0.5
 endloop
endfacet
facet normal 0 0 0
 outer loop
 vertex -0.2500000000000002 -0.4330127018922192 -0.5
 vertex -0.17101007166283427 -0.4698463103929542 0.5
 vertex -0.2500000000000002 -0.4330127018922192 0.5
 endloop
endfacet
facet normal 0 0 0
 outer loop
 vertex -0.17101007166283427 -0.4698463103929542 -0.5
 vertex -0.08682408883346517 -0.492403876506104 -0.5
 vertex -0.08682408883346517 -0.492403876506104 0.5
 endloop
endfacet
facet normal 0 0 0
 outer loop
 vertex -0.17101007166283427 -0.4698463103929542 -0.5
 vertex -0.08682408883346517 -0.492403876506104 0.5
 vertex -0.17101007166283427 -0.4698463103929542 0.5
 endloop
endfacet
facet normal 0 0 0
 outer loop
 vertex -0.08682408883346517 -0.492403876506104 -0.5
 vertex -9.184850993605148e-17 -0.5 -0.5
 vertex -9.184850993605148e-17 -0.5 0.5
 endloop
endfacet
facet normal 0 0 0
 outer loop
 vertex -0.08682408883346517 -0.492403876506104 -0.5
 vertex -9.184850993605148e-17 -0.5 0.5
 vertex -0.08682408883346517 -0.492403876506104 0.5
 endloop
endfacet
facet normal 0 0 0
 outer loop
 vertex -9.184850993605148e-17 -0.5 -0.5
 vertex 0.08682408883346499 -0.49240387650610407 -0.5
 vertex 0.08682408883346499 -0.49240387650610407 0.5
 endloop
endfacet
facet normal 0 0 0
 outer loop
 vertex -9.184850993605148e-17 -0.5 -0.5
 vertex 0.08682408883346499 -0.49240387650610407 0.5
 vertex -9.184850993605148e-17 -0.5 0.5
 endloop
endfacet
facet normal 0 0 0
 outer loop
 vertex 0.08682408883346499 -0.49240387650610407 -0.5
 vertex 0.1710100716628345 -0.46984631039295416 -0.5
 vertex 0.1710100716628345 -0.46984631039295416 0.5
 endloop
endfacet
facet normal 0 0 0
 outer loop
 vertex 0.08682408883346499 -0.49240387650610407 -0.5
 vertex 0.1710100716628345 -0.46984631039295416 0.5
 vertex 0.08682408883346499 -0.49240387650610407 0.5
 endloop
endfacet
facet normal 0 0 0
 outer loop
 vertex 0.1710100716628345 -0.46984631039295416 -0.5
 vertex 0.24999999999999967 -0.4330127018922195 -0.5
 vertex 0.24999999999999967 -0.4330127018922195 0.5
 endloop
endfacet
facet normal 0 0 0
 outer loop
 vertex 0.1710100716628345 -0.46984631039295416 -0.5
 vertex 0.24999999999999967 -0.4330127018922195 0.5
 vertex 0.1710100716628345 -0.46984631039295416 0.5
 endloop
endfacet
facet normal 0 0 0
 outer loop
 vertex 0.24999999999999967 -0.4330127018922195 -0.5
 vertex 0.3213938048432696 -0.38302222155948906 -0.5
 vertex 0.3213938048432696 -0.38302222155948906 0.5
 endloop
endfacet
facet normal 0 0 0
 outer loop
 vertex 0.24999999999999967 -0.4330127018922195 -0.5
 vertex 0.3213938048432696 -0.38302222155948906 0.5
 vertex 0.24999999999999967 -0.4330127018922195 0.5
 endloop
endfacet
facet normal 0 0 0
 outer loop
 vertex 0.3213938048432696 -0.38302222155948906 -0.5
 vertex 0.3830222215594889 -0.3213938048432698 -0.5
 vertex 0.3830222215594889 -0.3213938048432698 0.5
 endloop
endfacet
facet normal 0 0 0
 outer loop
 vertex 0.3213938048432696 -0.38302222155948906 -0.5
 vertex 0.3830222215594889 -0.3213938048432698 0.5
 vertex 0.3213938048432696 -0.38302222155948906 0.5
 endloop
endfacet
facet normal 0 0 0
 outer loop
 vertex 0.3830222215594889 -0.3213938048432698 -0.5
 vertex 0.4330127018922194 -0.24999999999999983 -0.5
 vertex 0.4330127018922194 -0.24999999999999983 0.5
 endloop
endfacet
facet normal 0 0 0
 outer loop
 vertex 0.3830222215594889 -0.3213938048432698 -0.5
 vertex 0.4330127018922194 -0.24999999999999983 0.5
 vertex 0.3830222215594889 -0.3213938048432698 0.5
 endloop
endfacet
facet normal 0 0 0
 outer loop
 vertex 0.4330127018922194 -0.24999999999999983 -0.5
 vertex 0.4698463103929542 -0.1710100716628343 -0.5
 vertex 0.4698463103929542 -0.1710100716628343 0.5
 endloop
endfacet
facet normal 0 0 0
 outer loop
 vertex 0.4330127018922194 -0.24999999999999983 -0.5
 vertex 0.4698463103929542 -0.1710100716628343 0.5
 vertex 0.4330127018922194 -0.24999999999999983 0.5
 endloop
endfacet
facet normal 0 0 0
 outer loop
 vertex 0.4698463103929542 -0.1710100716628343 -0.5
 vertex 0.492403876506104 -0.0868240888334652 -0.5
 vertex 0.492403876506104 -0.0868240888334652 0.5
 endloop
endfacet
facet normal 0 0 0
 outer loop
 vertex 0.4698463103929542 -0.1710100716628343 -0.5
 vertex 0.492403876506104 -0.0868240888334652 0.5
 vertex 0.4698463103929542 -0.1710100716628343 0.5
 endloop
endfacet
facet normal 0 0 0
 outer loop
 vertex 0.492403876506104 -0.0868240888334652 -0.5
 vertex 0.5 -1.2246467991473532e-16 -0.5
 vertex 0.5 -1.2246467991473532e-16 0.5
 endloop
endfacet
facet normal 0 0 0
 outer loop
 vertex 0.492403876506104 -0.0868240888334652 -0.5
 vertex 0.5 -1.2246467991473532e-16 0.5
 vertex 0.492403876506104 -0.0868240888334652 0.5
 endloop
endfacet
endsolid cylinder
